<mxfile host="app.diagrams.net" modified="2022-11-27T23:35:13.129Z" agent="5.0 (Macintosh; Intel Mac OS X 10_15_1) AppleWebKit/537.36 (KHTML, like Gecko) Chrome/92.0.4515.159 Safari/537.36 OPR/78.0.4093.184" etag="gRvT2yAHG1qZPAaiTNgF" version="14.8.1" type="github">
  <diagram id="u7_6A1jx2wm4o3OyX1XM" name="PÃ¡gina-1">
    <mxGraphModel dx="622" dy="438" grid="1" gridSize="10" guides="1" tooltips="1" connect="1" arrows="1" fold="1" page="1" pageScale="1" pageWidth="827" pageHeight="1169" math="0" shadow="0">
      <root>
        <mxCell id="0" />
        <mxCell id="1" parent="0" />
        <mxCell id="v6u1ob0e97yH1iC7hwPf-1" value="&lt;font style=&quot;font-size: 14px;&quot;&gt;Postman&lt;/font&gt;" style="rounded=0;whiteSpace=wrap;html=1;fillColor=#ffe6cc;strokeColor=#d79b00;" parent="1" vertex="1">
          <mxGeometry x="80" y="10" width="140" height="90" as="geometry" />
        </mxCell>
        <mxCell id="v6u1ob0e97yH1iC7hwPf-2" value="&lt;font style=&quot;font-size: 14px;&quot;&gt;ServiceNow&lt;/font&gt;" style="rounded=0;whiteSpace=wrap;html=1;fillColor=#d5e8d4;strokeColor=#82b366;" parent="1" vertex="1">
          <mxGeometry x="420" y="10" width="140" height="90" as="geometry" />
        </mxCell>
        <mxCell id="v6u1ob0e97yH1iC7hwPf-3" value="" style="endArrow=classic;html=1;rounded=0;entryX=0;entryY=0.25;entryDx=0;entryDy=0;exitX=1;exitY=0.25;exitDx=0;exitDy=0;" parent="1" source="v6u1ob0e97yH1iC7hwPf-1" target="v6u1ob0e97yH1iC7hwPf-2" edge="1">
          <mxGeometry width="50" height="50" relative="1" as="geometry">
            <mxPoint x="400" y="200" as="sourcePoint" />
            <mxPoint x="450" y="150" as="targetPoint" />
          </mxGeometry>
        </mxCell>
        <mxCell id="v6u1ob0e97yH1iC7hwPf-4" value="HTTP&lt;br&gt;Request" style="rounded=0;whiteSpace=wrap;html=1;dashed=1;" parent="1" vertex="1">
          <mxGeometry x="290" y="10" width="70" height="40" as="geometry" />
        </mxCell>
        <mxCell id="v6u1ob0e97yH1iC7hwPf-5" value="" style="endArrow=classic;html=1;rounded=0;entryX=1;entryY=0.75;entryDx=0;entryDy=0;exitX=0;exitY=0.75;exitDx=0;exitDy=0;" parent="1" source="v6u1ob0e97yH1iC7hwPf-2" target="v6u1ob0e97yH1iC7hwPf-1" edge="1">
          <mxGeometry width="50" height="50" relative="1" as="geometry">
            <mxPoint x="230" y="42.5" as="sourcePoint" />
            <mxPoint x="430" y="42.5" as="targetPoint" />
          </mxGeometry>
        </mxCell>
        <mxCell id="v6u1ob0e97yH1iC7hwPf-6" value="Response" style="rounded=0;whiteSpace=wrap;html=1;dashed=1;" parent="1" vertex="1">
          <mxGeometry x="290" y="60" width="70" height="40" as="geometry" />
        </mxCell>
        <mxCell id="v6u1ob0e97yH1iC7hwPf-8" value="&lt;font style=&quot;font-size: 14px;&quot;&gt;Postman&lt;/font&gt;" style="rounded=0;whiteSpace=wrap;html=1;fillColor=#ffe6cc;strokeColor=#d79b00;" parent="1" vertex="1">
          <mxGeometry x="85" y="320" width="140" height="90" as="geometry" />
        </mxCell>
        <mxCell id="v6u1ob0e97yH1iC7hwPf-9" value="&lt;font style=&quot;font-size: 14px;&quot;&gt;ServiceNow&lt;/font&gt;" style="rounded=0;whiteSpace=wrap;html=1;fillColor=#d5e8d4;strokeColor=#82b366;" parent="1" vertex="1">
          <mxGeometry x="425" y="320" width="140" height="90" as="geometry" />
        </mxCell>
        <mxCell id="v6u1ob0e97yH1iC7hwPf-10" value="" style="endArrow=classic;html=1;rounded=0;entryX=0;entryY=0.25;entryDx=0;entryDy=0;exitX=1;exitY=0.25;exitDx=0;exitDy=0;" parent="1" source="v6u1ob0e97yH1iC7hwPf-8" target="v6u1ob0e97yH1iC7hwPf-9" edge="1">
          <mxGeometry width="50" height="50" relative="1" as="geometry">
            <mxPoint x="405" y="510" as="sourcePoint" />
            <mxPoint x="455" y="460" as="targetPoint" />
          </mxGeometry>
        </mxCell>
        <mxCell id="v6u1ob0e97yH1iC7hwPf-11" value="HTTP&lt;br&gt;Request" style="rounded=0;whiteSpace=wrap;html=1;dashed=1;" parent="1" vertex="1">
          <mxGeometry x="295" y="320" width="70" height="40" as="geometry" />
        </mxCell>
        <mxCell id="v6u1ob0e97yH1iC7hwPf-12" value="" style="endArrow=classic;html=1;rounded=0;entryX=1;entryY=0.75;entryDx=0;entryDy=0;exitX=0;exitY=0.75;exitDx=0;exitDy=0;" parent="1" source="v6u1ob0e97yH1iC7hwPf-9" target="v6u1ob0e97yH1iC7hwPf-8" edge="1">
          <mxGeometry width="50" height="50" relative="1" as="geometry">
            <mxPoint x="235" y="352.5" as="sourcePoint" />
            <mxPoint x="435" y="352.5" as="targetPoint" />
          </mxGeometry>
        </mxCell>
        <mxCell id="v6u1ob0e97yH1iC7hwPf-13" value="Response" style="rounded=0;whiteSpace=wrap;html=1;dashed=1;" parent="1" vertex="1">
          <mxGeometry x="295" y="370" width="70" height="40" as="geometry" />
        </mxCell>
        <mxCell id="v6u1ob0e97yH1iC7hwPf-15" value="" style="endArrow=none;html=1;rounded=0;fontSize=14;exitX=0.578;exitY=0.002;exitDx=0;exitDy=0;entryX=0.014;entryY=0.569;entryDx=0;entryDy=0;strokeColor=#000066;entryPerimeter=0;exitPerimeter=0;" parent="1" source="v6u1ob0e97yH1iC7hwPf-19" target="v6u1ob0e97yH1iC7hwPf-18" edge="1">
          <mxGeometry width="50" height="50" relative="1" as="geometry">
            <mxPoint x="325" y="300" as="sourcePoint" />
            <mxPoint x="400" y="190" as="targetPoint" />
          </mxGeometry>
        </mxCell>
        <mxCell id="v6u1ob0e97yH1iC7hwPf-16" value="" style="endArrow=none;html=1;rounded=0;fontSize=14;exitX=0.994;exitY=0.378;exitDx=0;exitDy=0;entryX=0.5;entryY=1;entryDx=0;entryDy=0;strokeColor=#000066;exitPerimeter=0;" parent="1" source="v6u1ob0e97yH1iC7hwPf-19" target="v6u1ob0e97yH1iC7hwPf-18" edge="1">
          <mxGeometry width="50" height="50" relative="1" as="geometry">
            <mxPoint x="359.9999999999993" y="335" as="sourcePoint" />
            <mxPoint x="490" y="290" as="targetPoint" />
          </mxGeometry>
        </mxCell>
        <mxCell id="v6u1ob0e97yH1iC7hwPf-18" value="&lt;b&gt;Header&lt;/b&gt;&lt;br&gt;&lt;font style=&quot;font-size: 10px;&quot;&gt;Content-type&lt;br&gt;Accept&lt;br&gt;Authorization&lt;br&gt;&lt;br&gt;&lt;b style=&quot;font-size: 14px;&quot;&gt;Body&lt;br&gt;&lt;/b&gt;XML&lt;br&gt;&lt;/font&gt;" style="ellipse;whiteSpace=wrap;html=1;aspect=fixed;fontSize=14;fillColor=#dae8fc;strokeColor=#000066;" parent="1" vertex="1">
          <mxGeometry x="360" y="150" width="140" height="140" as="geometry" />
        </mxCell>
        <mxCell id="v6u1ob0e97yH1iC7hwPf-19" value="" style="ellipse;whiteSpace=wrap;html=1;strokeColor=#000066;fontSize=10;fillColor=none;" parent="1" vertex="1">
          <mxGeometry x="280" y="311.5" width="100" height="57" as="geometry" />
        </mxCell>
        <mxCell id="v6u1ob0e97yH1iC7hwPf-30" value="&lt;font style=&quot;font-size: 14px;&quot;&gt;SOAP&lt;/font&gt;" style="rounded=0;whiteSpace=wrap;html=1;" parent="1" vertex="1">
          <mxGeometry x="80" y="500" width="170" height="50" as="geometry" />
        </mxCell>
        <mxCell id="v6u1ob0e97yH1iC7hwPf-31" value="&lt;span style=&quot;font-size: 14px;&quot;&gt;REST&lt;/span&gt;" style="rounded=0;whiteSpace=wrap;html=1;" parent="1" vertex="1">
          <mxGeometry x="250" y="500" width="170" height="50" as="geometry" />
        </mxCell>
        <mxCell id="v6u1ob0e97yH1iC7hwPf-32" value="&lt;span style=&quot;font-size: 14px;&quot;&gt;Content-type:&lt;br&gt;JSON&lt;br&gt;XML&lt;br&gt;Image&lt;br&gt;...&lt;br&gt;&lt;br&gt;&lt;/span&gt;&lt;span style=&quot;font-size: 14px;&quot;&gt;Method:&lt;br&gt;&lt;/span&gt;&lt;span style=&quot;font-size: 14px;&quot;&gt;GET&lt;br&gt;POST&lt;br&gt;PUT&lt;br&gt;DELETE&lt;br&gt;&lt;/span&gt;" style="rounded=0;whiteSpace=wrap;html=1;" parent="1" vertex="1">
          <mxGeometry x="250" y="550" width="170" height="230" as="geometry" />
        </mxCell>
        <mxCell id="v6u1ob0e97yH1iC7hwPf-33" value="&lt;span style=&quot;font-size: 14px;&quot;&gt;Content-type:&lt;/span&gt;&lt;br style=&quot;font-size: 14px;&quot;&gt;&lt;span style=&quot;font-size: 14px;&quot;&gt;XML&lt;/span&gt;&lt;br style=&quot;font-size: 14px;&quot;&gt;&lt;br style=&quot;font-size: 14px;&quot;&gt;&lt;span style=&quot;font-size: 14px;&quot;&gt;Method:&lt;/span&gt;&lt;br style=&quot;font-size: 14px;&quot;&gt;&lt;span style=&quot;font-size: 14px;&quot;&gt;POST&lt;/span&gt;" style="rounded=0;whiteSpace=wrap;html=1;" parent="1" vertex="1">
          <mxGeometry x="80" y="550" width="170" height="230" as="geometry" />
        </mxCell>
        <mxCell id="ielKFODYIX4TLSf0GL0G-1" value="&lt;span style=&quot;font-size: 14px&quot;&gt;Basic&lt;/span&gt;" style="rounded=0;whiteSpace=wrap;html=1;fillColor=#dae8fc;strokeColor=#6c8ebf;" vertex="1" parent="1">
          <mxGeometry x="760" y="10" width="140" height="90" as="geometry" />
        </mxCell>
        <mxCell id="ielKFODYIX4TLSf0GL0G-2" value="&lt;font style=&quot;font-size: 14px&quot;&gt;API Key&lt;/font&gt;" style="rounded=0;whiteSpace=wrap;html=1;fillColor=#dae8fc;strokeColor=#6c8ebf;" vertex="1" parent="1">
          <mxGeometry x="920" y="10" width="140" height="90" as="geometry" />
        </mxCell>
        <mxCell id="ielKFODYIX4TLSf0GL0G-3" value="&lt;font style=&quot;font-size: 14px&quot;&gt;Token&lt;/font&gt;" style="rounded=0;whiteSpace=wrap;html=1;fillColor=#dae8fc;strokeColor=#6c8ebf;" vertex="1" parent="1">
          <mxGeometry x="760" y="120" width="140" height="90" as="geometry" />
        </mxCell>
        <mxCell id="ielKFODYIX4TLSf0GL0G-4" value="&lt;font style=&quot;font-size: 14px&quot;&gt;OAuth 2.0&lt;/font&gt;" style="rounded=0;whiteSpace=wrap;html=1;fillColor=#dae8fc;strokeColor=#6c8ebf;" vertex="1" parent="1">
          <mxGeometry x="920" y="120" width="140" height="90" as="geometry" />
        </mxCell>
        <mxCell id="ielKFODYIX4TLSf0GL0G-6" value="&lt;pre class=&quot;brush: http notranslate&quot; style=&quot;box-sizing: border-box ; overflow-wrap: break-word ; font-size: 16px ; border: 1px solid transparent ; margin-top: 1rem ; margin-bottom: 2rem ; padding: 1rem 2.5rem 1rem 1rem&quot;&gt;&lt;code style=&quot;box-sizing: border-box ; background: none ; padding: 0px ; font-size: 12px&quot;&gt;&lt;span class=&quot;token header&quot; style=&quot;box-sizing: border-box ; line-height: 120%&quot;&gt;&lt;span class=&quot;token header-name keyword&quot; style=&quot;box-sizing: border-box&quot;&gt;Authorization&lt;/span&gt;&lt;span class=&quot;token punctuation&quot; style=&quot;box-sizing: border-box&quot;&gt;:&lt;/span&gt; &lt;span class=&quot;token header-value&quot; style=&quot;box-sizing: border-box&quot;&gt;&amp;lt;type&amp;gt; &amp;lt;credentials&amp;gt;&lt;/span&gt;&lt;/span&gt;&lt;/code&gt;&lt;/pre&gt;" style="rounded=0;whiteSpace=wrap;html=1;fillColor=#fff2cc;strokeColor=#d6b656;strokeWidth=1;" vertex="1" parent="1">
          <mxGeometry x="760" y="240" width="300" height="40" as="geometry" />
        </mxCell>
        <mxCell id="ielKFODYIX4TLSf0GL0G-7" value="" style="shape=image;verticalLabelPosition=bottom;labelBackgroundColor=#ffffff;verticalAlign=top;aspect=fixed;imageAspect=0;image=https://developer.mozilla.org/en-US/docs/Web/HTTP/Authentication/http-auth-sequence-diagram.png;" vertex="1" parent="1">
          <mxGeometry x="1130" y="10" width="520" height="297" as="geometry" />
        </mxCell>
        <mxCell id="ielKFODYIX4TLSf0GL0G-8" value="&lt;span style=&quot;background-color: rgb(255 , 255 , 255)&quot;&gt;&lt;span style=&quot;font-size: 16px ; font-style: normal ; font-weight: 400 ; letter-spacing: normal ; text-indent: 0px ; text-transform: none ; word-spacing: 0px ; display: inline ; float: none&quot;&gt;&amp;nbsp;In the case of proxies, the challenging status code is&amp;nbsp;&lt;/span&gt;&lt;a href=&quot;https://developer.mozilla.org/en-US/docs/Web/HTTP/Status/407&quot; style=&quot;box-sizing: border-box ; text-decoration: underline ; font-size: 16px ; font-style: normal ; font-weight: 400 ; letter-spacing: normal ; text-indent: 0px ; text-transform: none ; word-spacing: 0px&quot;&gt;&lt;code style=&quot;box-sizing: border-box ; padding: 0.125rem 0.25rem&quot;&gt;407&lt;/code&gt;&lt;/a&gt;&lt;span style=&quot;font-size: 16px ; font-style: normal ; font-weight: 400 ; letter-spacing: normal ; text-indent: 0px ; text-transform: none ; word-spacing: 0px ; display: inline ; float: none&quot;&gt;&lt;span&gt;&amp;nbsp;&lt;/span&gt;(Proxy Authentication Required), the&lt;span&gt;&amp;nbsp;&lt;/span&gt;&lt;/span&gt;&lt;a href=&quot;https://developer.mozilla.org/en-US/docs/Web/HTTP/Headers/Proxy-Authenticate&quot; style=&quot;box-sizing: border-box ; text-decoration: underline ; font-size: 16px ; font-style: normal ; font-weight: 400 ; letter-spacing: normal ; text-indent: 0px ; text-transform: none ; word-spacing: 0px&quot;&gt;&lt;code style=&quot;box-sizing: border-box ; padding: 0.125rem 0.25rem&quot;&gt;Proxy-Authenticate&lt;/code&gt;&lt;/a&gt;&lt;span style=&quot;font-size: 16px ; font-style: normal ; font-weight: 400 ; letter-spacing: normal ; text-indent: 0px ; text-transform: none ; word-spacing: 0px ; display: inline ; float: none&quot;&gt;&lt;span&gt;&amp;nbsp;&lt;/span&gt;response header contains at least one challenge applicable to the proxy, and the&lt;span&gt;&amp;nbsp;&lt;/span&gt;&lt;/span&gt;&lt;a href=&quot;https://developer.mozilla.org/en-US/docs/Web/HTTP/Headers/Proxy-Authorization&quot; style=&quot;box-sizing: border-box ; text-decoration: underline ; font-size: 16px ; font-style: normal ; font-weight: 400 ; letter-spacing: normal ; text-indent: 0px ; text-transform: none ; word-spacing: 0px&quot;&gt;&lt;code style=&quot;box-sizing: border-box ; padding: 0.125rem 0.25rem&quot;&gt;Proxy-Authorization&lt;/code&gt;&lt;/a&gt;&lt;span style=&quot;font-size: 16px ; font-style: normal ; font-weight: 400 ; letter-spacing: normal ; text-indent: 0px ; text-transform: none ; word-spacing: 0px ; display: inline ; float: none&quot;&gt;&amp;nbsp;request header is used for providing the credentials to the proxy server.&lt;/span&gt;&lt;/span&gt;" style="text;whiteSpace=wrap;html=1;" vertex="1" parent="1">
          <mxGeometry x="1700" y="40" width="550" height="90" as="geometry" />
        </mxCell>
        <mxCell id="ielKFODYIX4TLSf0GL0G-9" value="&lt;meta charset=&quot;utf-8&quot;&gt;&lt;pre class=&quot;newpage&quot; style=&quot;font-size: 13.3333px ; margin-top: 0px ; margin-bottom: 0px ; color: rgb(0 , 0 , 0) ; font-style: normal ; font-weight: 400 ; letter-spacing: normal ; text-indent: 0px ; text-transform: none ; word-spacing: 0px&quot;&gt; Client                                 Server&#xa;            |                                      |&#xa;            |  ---- (1) normal request ---------&amp;gt;  |&#xa;        GET / HTTP/1.1                             |&#xa;            |                                      |&#xa;            |  &amp;lt;---------------- (2) 401-INIT ---  |&#xa;            |            401 Unauthorized          |&#xa;            |            WWW-Authenticate: Mutual realm=&quot;a realm&quot;&#xa;            |                                      |&#xa;   [user,   |                                      |&#xa;    pass]--&amp;gt;|                                      |&#xa;            |  ---- (3) req-KEX-C1 -------------&amp;gt;  |&#xa;        GET / HTTP/1.1                             |&#xa;        Authorization: Mutual user=&quot;john&quot;,         |--&amp;gt; [user DB]&#xa;                       kc1=&quot;...&quot;, ...              |&amp;lt;-- [user info]&#xa;            |                                      |&#xa;            |  &amp;lt;-------------- (4) 401-KEX-S1 ---  |&#xa;            |           401 Unauthorized           |&#xa;            |           WWW-Authenticate: Mutual sid=..., ks1=&quot;...&quot;, ...&#xa;            |                                      |&#xa;        [compute] (5) compute session secret   [compute]&#xa;            |                                      |&#xa;            |                                      |&#xa;            |  ---- (6) req-VFY-C --------------&amp;gt;  |&#xa;        GET / HTTP/1.1                             |--&amp;gt; [verify (6)]&#xa;        Authorization: Mutual sid=...,             |&amp;lt;-- OK&#xa;                       vkc=&quot;...&quot;, ...              |&#xa;            |                                      |&#xa;            |  &amp;lt;--------------- (7) 200-VFY-S ---  |&#xa;   [verify  |           200 OK                     |&#xa;     (7)]&amp;lt;--|           Authentication-Info: Mutual vks=&quot;...&quot;&#xa;            |                                      |&#xa;            v                                      v&#xa;&lt;/pre&gt;&lt;br class=&quot;Apple-interchange-newline&quot;&gt;" style="text;whiteSpace=wrap;html=1;" vertex="1" parent="1">
          <mxGeometry x="1140" y="420" width="550" height="490" as="geometry" />
        </mxCell>
      </root>
    </mxGraphModel>
  </diagram>
</mxfile>
